<?xml version="1.0" standalone="no"?>
<!DOCTYPE svg PUBLIC "-//W3C//DTD SVG 20010904//EN"
 "http://www.w3.org/TR/2001/REC-SVG-20010904/DTD/svg10.dtd">
<svg version="1.0" xmlns="http://www.w3.org/2000/svg"
 width="500.000000pt" height="500.000000pt" viewBox="0 0 500.000000 500.000000"
 preserveAspectRatio="xMidYMid meet">

<g transform="translate(0.000000,500.000000) scale(0.100000,-0.100000)"
fill="#ffffff" stroke="none">
<path d="M2019 4052 c-92 -48 -140 -163 -109 -257 19 -58 83 -121 141 -140
l49 -17 0 -344 c0 -343 0 -345 -25 -403 -13 -32 -131 -274 -261 -537 -522
-1057 -478 -962 -478 -1030 -1 -79 35 -136 109 -171 l50 -23 1025 0 c685 0
1038 4 1063 11 43 12 101 59 123 100 7 15 14 53 14 84 0 63 18 24 -335 740
-103 209 -241 490 -306 624 l-119 244 2 355 3 355 37 13 c164 56 204 258 74
372 -20 17 -52 36 -73 41 -24 7 -204 11 -484 11 l-447 0 -53 -28z m932 -152
c21 -12 25 -50 7 -68 -9 -9 -118 -12 -429 -12 -366 0 -420 2 -433 16 -9 8 -16
22 -16 29 0 7 7 21 16 29 13 14 66 16 425 16 264 0 417 -4 430 -10z m-174
-258 c9 -6 13 -104 15 -392 l3 -385 121 -242 c67 -133 119 -244 116 -247 -3
-4 -17 -6 -32 -6 -37 0 -146 -37 -197 -66 -56 -32 -147 -108 -253 -210 -122
-117 -191 -171 -265 -205 -56 -27 -77 -31 -149 -31 -71 0 -92 4 -140 28 -58
28 -153 116 -148 136 2 6 69 144 149 307 80 163 174 356 209 429 l64 133 0
373 c0 205 3 376 7 379 9 10 485 8 500 -1z m393 -1533 l45 -91 -45 -40 c-75
-67 -114 -83 -205 -83 -90 1 -140 20 -210 81 l-40 35 65 60 c97 91 176 127
280 128 l66 1 44 -91z m-528 -263 c183 -160 427 -170 611 -24 21 16 40 28 42
27 18 -20 235 -475 235 -493 0 -58 44 -56 -1005 -56 -754 0 -965 3 -977 13
-36 28 -30 49 92 295 l120 242 42 -40 c53 -50 159 -105 235 -121 75 -15 191
-6 271 21 64 22 179 93 242 149 19 17 37 31 38 31 2 0 26 -20 54 -44z"/>
<path d="M2054 2156 c-18 -8 -36 -27 -44 -46 -12 -29 -11 -37 6 -68 25 -47 66
-61 110 -37 67 36 67 117 -1 149 -39 19 -32 19 -71 2z"/>
</g>
</svg>
